<svg xmlns="http://www.w3.org/2000/svg" xmlns:xlink="http://www.w3.org/1999/xlink" width="500" zoomAndPan="magnify" viewBox="0 0 375 374.999991" height="500" preserveAspectRatio="xMidYMid meet" version="1.2"><defs><clipPath id="045aade262"><path d="M 149.828125 37.222656 L 167.808594 37.222656 L 167.808594 282.402344 L 149.828125 282.402344 Z M 149.828125 37.222656 "/></clipPath><clipPath id="073b52e32d"><path d="M 207.179688 167.183594 L 225.164062 167.183594 L 225.164062 337.496094 L 207.179688 337.496094 Z M 207.179688 167.183594 "/></clipPath><clipPath id="59a8af0bc9"><path d="M 92.550781 113.113281 L 282.453125 113.113281 L 282.453125 131.09375 L 92.550781 131.09375 Z M 92.550781 113.113281 "/></clipPath><clipPath id="c5ebb1864d"><path d="M 158.820312 167.1875 L 225.164062 167.1875 L 225.164062 185.171875 L 158.820312 185.171875 Z M 158.820312 167.1875 "/></clipPath></defs><g id="4aa47915c7"><rect x="0" width="375" y="0" height="374.999991" style="fill:#ffffff;fill-opacity:1;stroke:none;"/><rect x="0" width="375" y="0" height="374.999991" style="fill:#ffffff;fill-opacity:1;stroke:none;"/><g clip-rule="nonzero" clip-path="url(#045aade262)"><path style=" stroke:none;fill-rule:nonzero;fill:#000000;fill-opacity:1;" d="M 167.808594 282.402344 L 149.828125 282.402344 L 149.828125 37.199219 L 167.808594 37.199219 Z M 167.808594 282.402344 "/></g><g clip-rule="nonzero" clip-path="url(#073b52e32d)"><path style=" stroke:none;fill-rule:nonzero;fill:#000000;fill-opacity:1;" d="M 225.164062 337.496094 L 207.179688 337.496094 L 207.179688 167.167969 L 225.164062 167.167969 Z M 225.164062 337.496094 "/></g><g clip-rule="nonzero" clip-path="url(#59a8af0bc9)"><path style=" stroke:none;fill-rule:nonzero;fill:#000000;fill-opacity:1;" d="M 92.550781 131.09375 L 92.550781 113.113281 L 282.480469 113.113281 L 282.480469 131.09375 Z M 92.550781 131.09375 "/></g><g clip-rule="nonzero" clip-path="url(#c5ebb1864d)"><path style=" stroke:none;fill-rule:nonzero;fill:#000000;fill-opacity:1;" d="M 225.164062 167.1875 L 225.164062 185.171875 L 158.785156 185.171875 L 158.785156 167.1875 Z M 225.164062 167.1875 "/></g></g></svg>