<?xml version="1.0" encoding="utf-8"?>
<!-- Generator: Adobe Illustrator 26.0.3, SVG Export Plug-In . SVG Version: 6.00 Build 0)  -->
<svg version="1.0" id="katman_1" xmlns="http://www.w3.org/2000/svg" xmlns:xlink="http://www.w3.org/1999/xlink" x="0px" y="0px"
	 viewBox="0 0 800 600" style="enable-background:new 0 0 800 600;" xml:space="preserve">
<style type="text/css">
	.st0{clip-path:url(#SVGID_00000108300509049524468200000009746551823215229886_);fill:#00FAF0;}
	.st1{clip-path:url(#SVGID_00000108300509049524468200000009746551823215229886_);fill:#FE2C55;}
	.st2{clip-path:url(#SVGID_00000108300509049524468200000009746551823215229886_);fill:#FFFFFF;}
</style>
<path d="M389.1,246.4h-17.7v26.1h-20.6v17.7h20.6v36.2l-20.6,3v18.7l20.6-3v31c0,2.5-2,4.5-4.5,4.5H352v17.7h22.2
	c8.2,0,14.9-6.7,14.9-14.9v-40.9l18-2.7V321l-18,2.7v-33.4h18v-17.7h-18L389.1,246.4L389.1,246.4z M489.6,246.4H472v92.6l-58.4,5
	v18.7l58.4-4.9v41.6h17.6v-43.3l18-1.6v-18.7l-18,1.6V246.4z"/>
<path d="M462.9,267l-41.9-7.5v18.8l41.9,7.4V267z M462.9,305.9l-41.9-7.5v18.8l41.9,7.5C462.9,324.7,462.9,305.9,462.9,305.9z
	 M651.7,298.1l2.7-14.5h-18.7l-2.9,14.5h-48.9l-2.2-14.5h-18.8l2.3,14.5h-35.5v17.3h156.6v-17.3
	C686.3,298.1,651.7,298.1,651.7,298.1z M681.4,258.7H622l-3-12.3H596l3,12.3h-64.3v17.2h146.8V258.7z M657.3,328.1h-98.4
	c-8.2,0-14.9,6.7-14.9,14.9v40.5c0,8.2,6.7,14.9,14.9,14.9h98.4c8.2,0,14.9-6.7,14.9-14.9V343C672.1,334.8,665.6,328.1,657.3,328.1
	L657.3,328.1z M565.1,344.2h86c2.5,0,4.5,2.1,4.5,4.5v7.2h-94.9v-7.2c-0.1-2.3,1.7-4.4,4-4.5C564.9,344.2,565,344.2,565.1,344.2z
	 M651.1,382.5h-86c-2.5,0-4.5-2-4.5-4.5v-7.4h94.9v7.4C655.5,380.4,653.6,382.4,651.1,382.5C651.1,382.5,651.1,382.5,651.1,382.5z"
	/>
<g>
	<defs>
		<rect id="SVGID_1_" x="82.6" y="167.4" width="726.4" height="271.4"/>
	</defs>
	<clipPath id="SVGID_00000171679175013321998200000003854218166782400902_">
		<use xlink:href="#SVGID_1_"  style="overflow:visible;"/>
	</clipPath>
	<path style="clip-path:url(#SVGID_00000171679175013321998200000003854218166782400902_);fill:#00FAF0;" d="M175.9,274v-10.5
		c-3.7-0.4-7.3-0.7-11.1-0.7c-45.2,0-82.2,36.7-82.2,82.1c0,27.7,13.9,52.4,35,67.2c-14.2-15.1-22.1-35.1-22-55.9
		C95.8,311.5,131.5,275.1,175.9,274L175.9,274z"/>
	<path style="clip-path:url(#SVGID_00000171679175013321998200000003854218166782400902_);fill:#00FAF0;" d="M177.8,393.5
		c20.1,0,36.6-15.9,37.4-36V178.8h32.7c-0.7-3.7-1.1-7.6-1-11.4h-44.7v178.7c-0.8,20.1-17.3,36-37.4,36c-6.3,0-12.3-1.6-17.4-4.4
		C154.4,387.6,165.7,393.5,177.8,393.5z M309,239.5v-9.9c-12,0-23.8-3.5-33.9-10.1C284,229.6,295.9,236.6,309,239.5L309,239.5z"/>
	<path style="clip-path:url(#SVGID_00000171679175013321998200000003854218166782400902_);fill:#FE2C55;" d="M275.3,219.5
		c-9.9-11.3-15.3-25.7-15.3-40.7h-12C251.2,195.5,261,210.2,275.3,219.5z M164.8,307.3c-20.7,0-37.5,16.8-37.5,37.5c0,0,0,0,0,0
		c0,14.4,8.2,26.8,20.1,33.1c-4.6-6.4-7.1-14-7.1-21.9c0-20.7,16.8-37.5,37.5-37.5c0,0,0,0,0,0c3.8,0,7.6,0.6,11.1,1.8v-45.5
		c-3.7-0.4-7.3-0.7-11.1-0.7h-1.9v35C172.3,307.9,168.6,307.3,164.8,307.3L164.8,307.3z"/>
	<path style="clip-path:url(#SVGID_00000171679175013321998200000003854218166782400902_);fill:#FE2C55;" d="M309,239.5v34.7
		c-23.2,0-44.5-7.4-62-20v90.6c0,45.2-36.8,82.1-82.2,82.1c-17.5,0-33.7-5.5-47-14.9c15,16,36.3,26.3,60.1,26.3
		c45.2,0,82.2-36.8,82.2-82.1v-90.6c18.1,13,39.8,20,62,20v-44.6C317.7,240.8,313.3,240.3,309,239.5z"/>
	<path style="clip-path:url(#SVGID_00000171679175013321998200000003854218166782400902_);fill:#FFFFFF;" d="M247,344.8v-90.6
		c18.1,13,39.8,20,62,20v-34.7c-13.1-2.9-25-9.9-33.9-20c-14.3-9.2-24.1-24-27.1-40.7h-32.7v178.7c-0.8,20.1-17.3,36-37.4,36
		c-12.1,0-23.4-5.8-30.4-15.6c-12.3-6.4-20.1-19.2-20.1-33.1c0-20.7,16.8-37.5,37.5-37.5c0,0,0,0,0,0c3.8,0,7.6,0.6,11.1,1.7v-35
		c-44.4,1-80.1,37.5-80.1,82c0,21.6,8.3,41.3,22,55.9c13.8,9.7,30.2,14.9,47,14.9C210,426.9,246.9,390,247,344.8L247,344.8z"/>
</g>
</svg>
