<svg id="Layer_1" data-name="Layer 1" xmlns="http://www.w3.org/2000/svg" width="240" height="89.64" viewBox="0 0 240 89.64"><title>Kuaishou logo - Brandlogos.net</title><path d="M404.22,354.53h-6.16v5.64H386.4a1.91,1.91,0,0,0-1.93,1.8v6.1h13.61v10.78l0,4.38v1c0,.8-.06,1.8-.12,2.55l0,.45-.09,1H383.64a1.91,1.91,0,0,0-1.93,1.81v6.1h15.59a26,26,0,0,1-15.6,16.12l1.93,6.5a1.27,1.27,0,0,0,1.56.63,33.74,33.74,0,0,0,19.37-19.91c4.19,11.94,13.91,17.5,18.32,19.48l.37.16c1.47.64,2.09,0,2.33-.79l1.82-6.07a26,26,0,0,1-15.57-16.12h13.72a1.91,1.91,0,0,0,1.85-1.8v-6.1h-3.83V362.08a1.91,1.91,0,0,0-1.84-1.9H406.06v-3.86a1.91,1.91,0,0,0-1.74-1.79Zm-28.43,0h-6.07V417.4a1.91,1.91,0,0,0,1.83,1.9h.1l6.07,0V381.1h4.81a1.91,1.91,0,0,0,1.85-1.8v-6.1h-6.67V356.35a1.91,1.91,0,0,0-1.83-1.82h-.09Zm116.44.75a7.56,7.56,0,0,1-6.13,3.28H439.44v6a1.91,1.91,0,0,0,1.74,1.89h24.76v10.36H443.61a1.91,1.91,0,0,0-1.93,1.81v6.1h24.25v9.42H436.67a1.91,1.91,0,0,0-1.93,1.8v6.1h31.19v7.32a2.38,2.38,0,0,1-2.26,2H452.77l1.74,6.45a2,2,0,0,0,1.68,1.44h7.95a10.32,10.32,0,0,0,9.79-10.08v-7.14h28.22a1.91,1.91,0,0,0,1.85-1.8v-6.1H473.92v-9.42h21a1.91,1.91,0,0,0,1.85-1.8v-6.1h-22.9V366.46q4,0,12,0a15.52,15.52,0,0,0,14.38-9.2l-5.77-2.47a1.79,1.79,0,0,0-2.31.5Zm-127.79,7.85h-6.07V385.8a50.08,50.08,0,0,1-2.28,13.59,1.89,1.89,0,0,0,1.06,2.29l.09,0,5.89,2a54.92,54.92,0,0,0,3.23-17.92v-3.15h0V364.93a1.91,1.91,0,0,0-1.74-1.79h-.19Zm41.63,5h9.52v20.15h-9.76l.09-1.2c.07-1.15.12-2.57.14-3.83V368.08Z" transform="translate(-264 -339.18)" style="fill:#222"/><path d="M326.88,385.15a15.68,15.68,0,0,1,15.72,15.63v12.42a15.67,15.67,0,0,1-15.72,15.63H303.76a15.72,15.72,0,0,1-14.94-10.76L275,424.92a7.65,7.65,0,0,1-10.24-3.38,7.55,7.55,0,0,1-.81-3.4V395.88a7.64,7.64,0,0,1,11.07-6.77l13.71,6.9a15.72,15.72,0,0,1,15-10.87h23.12Zm-.1,8H304a7.84,7.84,0,0,0-7.86,7.69V413a7.84,7.84,0,0,0,7.73,7.81h22.79a7.84,7.84,0,0,0,7.86-7.68V401A7.84,7.84,0,0,0,326.78,393.19ZM274.17,398a2.08,2.08,0,0,0-2.08,2v14a2.09,2.09,0,0,0,3,1.86l0,0L288,409.35v-4.64l-12.94-6.46A2.09,2.09,0,0,0,274.17,398Zm19.19-58.86A21.28,21.28,0,0,1,311.93,350a18.15,18.15,0,1,1-2.35,24,21.21,21.21,0,1,1-16.22-34.83Zm0,8.5a12.64,12.64,0,1,0,12.71,12.64A12.68,12.68,0,0,0,293.36,347.68Zm31,6a9.68,9.68,0,0,0-9.71,9.65h0a9.68,9.68,0,0,0,9.71,9.65h0a9.68,9.68,0,0,0,9.71-9.65h0a9.68,9.68,0,0,0-9.71-9.65Z" transform="translate(-264 -339.18)" style="fill:#ff3d13"/></svg>